<svg enable-background="new 0 0 100 100" height="50" viewBox="0 0 100 100" width="50" xmlns="http://www.w3.org/2000/svg"><g fill="#0067f4"><path d="m94.6 32.1-12.9-13c-.8-.8-1.9-1.2-3-1.1l-18.5 1.5c-15.8-13.4-35.7-18.6-52.1-13.1l-1.3.4-.4 1.3c-5.5 16.4-.3 36.3 13.2 52.1l-1.6 18.5c-.1 1.1.3 2.2 1.1 3l12.9 12.9c.7.7 1.7 1.1 2.7 1.1.4 0 .8-.1 1.3-.2 1.4-.5 2.4-1.7 2.6-3.2l1.9-15.6c3.3 1.7 6.7 3.1 10.2 4.2l.4.1c.7.2 1.5 0 2-.5l27.5-27.5c.5-.5.7-1.3.5-2l-.1-.3c-1.1-3.5-2.5-6.9-4.2-10.2l15.6-1.9c1.5-.2 2.7-1.2 3.2-2.6.4-1.4.1-2.9-1-3.9zm-61.1 56.2-10-10 1.1-12.8c3.3 3.2 6.9 5.9 10.6 8.3zm17.2-13.1c-8.5-2.9-16.6-8-23.5-14.8-14.2-14.2-20.5-33.8-16-49.2 15.4-4.5 35 1.8 49.2 16 6.9 6.9 12 15 14.8 23.5zm23.2-39.9c-2.4-3.7-5.2-7.3-8.3-10.6l12.8-1.1 10 10z"/><path d="m34.1 34.1c-3.7 3.7-3.7 9.7 0 13.5 1.9 1.9 4.3 2.8 6.7 2.8s4.9-.9 6.7-2.8c3.7-3.7 3.7-9.7 0-13.5-3.7-3.7-9.7-3.7-13.4 0zm9.5 9.5c-1.6 1.6-4.1 1.6-5.7 0s-1.6-4.1 0-5.7c.8-.8 1.8-1.2 2.8-1.2s2.1.4 2.8 1.2c1.7 1.6 1.7 4.2.1 5.7z"/><path d="m86 59.3c-1.1-1.1-2.8-1.1-3.9 0l-23 23c-1.1 1.1-1.1 2.8 0 3.9.2.2.5.4.7.5 9.2 6.1 20.4 7.7 29.2 4 .3-.1.6-.3.9-.6s.5-.6.6-.9c3.7-8.8 2.1-20-4-29.2-.1-.3-.3-.5-.5-.7zm-.2 26.7c-6.2 2.1-13.6 1.3-20.3-2.3l18-18c3.6 6.7 4.4 14.1 2.3 20.3z"/></g></svg>